<?xml version="1.0" encoding="UTF-8" standalone="no"?>
<!DOCTYPE svg PUBLIC "-//W3C//DTD SVG 1.1//EN"
 "http://www.w3.org/Graphics/SVG/1.1/DTD/svg11.dtd">
<!-- Generated by graphviz version 2.43.0 (0)
 -->
<!-- Title: PerFileDeps Pages: 1 -->
<svg width="548pt" height="476pt"
 viewBox="0.00 0.00 548.00 476.00" xmlns="http://www.w3.org/2000/svg" xmlns:xlink="http://www.w3.org/1999/xlink">
<g id="graph0" class="graph" transform="scale(1 1) rotate(0) translate(4 472)">
<title>PerFileDeps</title>
<polygon fill="white" stroke="transparent" points="-4,4 -4,-472 544,-472 544,4 -4,4"/>
<!-- packages_core_src_3d_ts -->
<g id="node1" class="node">
<title>packages_core_src_3d_ts</title>
<polygon fill="#90ee90" stroke="black" points="540,-252 486,-252 486,-216 540,-216 540,-252"/>
<text text-anchor="middle" x="513" y="-230.3" font-family="Times,serif" font-size="14.00">3d.ts</text>
</g>
<!-- packages_core_src_examples_fractal&#45;shader&#45;demo_ts -->
<g id="node2" class="node">
<title>packages_core_src_examples_fractal&#45;shader&#45;demo_ts</title>
<polygon fill="#add8e6" stroke="black" points="441,-468 191,-468 191,-432 441,-432 441,-468"/>
<text text-anchor="middle" x="316" y="-446.3" font-family="Times,serif" font-size="14.00">examples/fractal&#45;shader&#45;demo.ts</text>
</g>
<!-- packages_core_src_examples_fractal&#45;shader&#45;demo_ts&#45;&gt;packages_core_src_3d_ts -->
<g id="edge1" class="edge">
<title>packages_core_src_examples_fractal&#45;shader&#45;demo_ts&#45;&gt;packages_core_src_3d_ts</title>
<path fill="none" stroke="gray" d="M438.12,-431.83C442.32,-429.22 446.3,-426.29 450,-423 496.76,-381.4 508.39,-303.99 511.19,-262.31"/>
<polygon fill="gray" stroke="gray" points="514.69,-262.46 511.74,-252.28 507.7,-262.08 514.69,-262.46"/>
</g>
<!-- packages_core_src_examples_lights&#45;phong&#45;demo_ts -->
<g id="node3" class="node">
<title>packages_core_src_examples_lights&#45;phong&#45;demo_ts</title>
<polygon fill="#add8e6" stroke="black" points="435.5,-414 196.5,-414 196.5,-378 435.5,-378 435.5,-414"/>
<text text-anchor="middle" x="316" y="-392.3" font-family="Times,serif" font-size="14.00">examples/lights&#45;phong&#45;demo.ts</text>
</g>
<!-- packages_core_src_examples_lights&#45;phong&#45;demo_ts&#45;&gt;packages_core_src_3d_ts -->
<g id="edge2" class="edge">
<title>packages_core_src_examples_lights&#45;phong&#45;demo_ts&#45;&gt;packages_core_src_3d_ts</title>
<path fill="none" stroke="gray" d="M435.79,-378.32C440.8,-375.6 445.57,-372.51 450,-369 483.63,-342.34 499.73,-293.31 506.89,-262.25"/>
<polygon fill="gray" stroke="gray" points="510.4,-262.59 509.06,-252.08 503.55,-261.13 510.4,-262.59"/>
</g>
<!-- packages_core_src_examples_physx&#45;planck&#45;2d&#45;demo_ts -->
<g id="node4" class="node">
<title>packages_core_src_examples_physx&#45;planck&#45;2d&#45;demo_ts</title>
<polygon fill="#add8e6" stroke="black" points="448.5,-360 183.5,-360 183.5,-324 448.5,-324 448.5,-360"/>
<text text-anchor="middle" x="316" y="-338.3" font-family="Times,serif" font-size="14.00">examples/physx&#45;planck&#45;2d&#45;demo.ts</text>
</g>
<!-- packages_core_src_examples_physx&#45;planck&#45;2d&#45;demo_ts&#45;&gt;packages_core_src_3d_ts -->
<g id="edge3" class="edge">
<title>packages_core_src_examples_physx&#45;planck&#45;2d&#45;demo_ts&#45;&gt;packages_core_src_3d_ts</title>
<path fill="none" stroke="gray" d="M432.93,-323.94C438.87,-321.34 444.61,-318.37 450,-315 470.84,-301.97 487.31,-279.25 498.02,-261.19"/>
<polygon fill="gray" stroke="gray" points="501.2,-262.67 503.09,-252.24 495.11,-259.22 501.2,-262.67"/>
</g>
<!-- packages_core_src_examples_physx&#45;rapier&#45;2d&#45;demo_ts -->
<g id="node5" class="node">
<title>packages_core_src_examples_physx&#45;rapier&#45;2d&#45;demo_ts</title>
<polygon fill="#add8e6" stroke="black" points="447,-306 185,-306 185,-270 447,-270 447,-306"/>
<text text-anchor="middle" x="316" y="-284.3" font-family="Times,serif" font-size="14.00">examples/physx&#45;rapier&#45;2d&#45;demo.ts</text>
</g>
<!-- packages_core_src_examples_physx&#45;rapier&#45;2d&#45;demo_ts&#45;&gt;packages_core_src_3d_ts -->
<g id="edge4" class="edge">
<title>packages_core_src_examples_physx&#45;rapier&#45;2d&#45;demo_ts&#45;&gt;packages_core_src_3d_ts</title>
<path fill="none" stroke="gray" d="M417.44,-269.97C428.51,-267.28 439.55,-264.3 450,-261 458.79,-258.23 468.01,-254.62 476.58,-250.95"/>
<polygon fill="gray" stroke="gray" points="478.19,-254.06 485.92,-246.81 475.36,-247.66 478.19,-254.06"/>
</g>
<!-- packages_core_src_examples_shader&#45;cube&#45;demo_ts -->
<g id="node6" class="node">
<title>packages_core_src_examples_shader&#45;cube&#45;demo_ts</title>
<polygon fill="#add8e6" stroke="black" points="434.5,-252 197.5,-252 197.5,-216 434.5,-216 434.5,-252"/>
<text text-anchor="middle" x="316" y="-230.3" font-family="Times,serif" font-size="14.00">examples/shader&#45;cube&#45;demo.ts</text>
</g>
<!-- packages_core_src_examples_shader&#45;cube&#45;demo_ts&#45;&gt;packages_core_src_3d_ts -->
<g id="edge5" class="edge">
<title>packages_core_src_examples_shader&#45;cube&#45;demo_ts&#45;&gt;packages_core_src_3d_ts</title>
<path fill="none" stroke="gray" d="M434.65,-234C449.46,-234 463.61,-234 475.68,-234"/>
<polygon fill="gray" stroke="gray" points="475.7,-237.5 485.7,-234 475.7,-230.5 475.7,-237.5"/>
</g>
<!-- packages_core_src_examples_sprite&#45;animation&#45;demo_ts -->
<g id="node7" class="node">
<title>packages_core_src_examples_sprite&#45;animation&#45;demo_ts</title>
<polygon fill="#add8e6" stroke="black" points="450,-198 182,-198 182,-162 450,-162 450,-198"/>
<text text-anchor="middle" x="316" y="-176.3" font-family="Times,serif" font-size="14.00">examples/sprite&#45;animation&#45;demo.ts</text>
</g>
<!-- packages_core_src_examples_sprite&#45;animation&#45;demo_ts&#45;&gt;packages_core_src_3d_ts -->
<g id="edge6" class="edge">
<title>packages_core_src_examples_sprite&#45;animation&#45;demo_ts&#45;&gt;packages_core_src_3d_ts</title>
<path fill="none" stroke="gray" d="M417.44,-198.03C428.51,-200.72 439.55,-203.7 450,-207 458.79,-209.77 468.01,-213.38 476.58,-217.05"/>
<polygon fill="gray" stroke="gray" points="475.36,-220.34 485.92,-221.19 478.19,-213.94 475.36,-220.34"/>
</g>
<!-- packages_core_src_examples_sprite&#45;particle&#45;generator&#45;demo_ts -->
<g id="node8" class="node">
<title>packages_core_src_examples_sprite&#45;particle&#45;generator&#45;demo_ts</title>
<polygon fill="#add8e6" stroke="black" points="446,-144 186,-144 186,-108 446,-108 446,-144"/>
<text text-anchor="middle" x="316" y="-122.3" font-family="Times,serif" font-size="14.00">...prite&#45;particle&#45;generator&#45;demo.ts</text>
</g>
<!-- packages_core_src_examples_sprite&#45;particle&#45;generator&#45;demo_ts&#45;&gt;packages_core_src_3d_ts -->
<g id="edge7" class="edge">
<title>packages_core_src_examples_sprite&#45;particle&#45;generator&#45;demo_ts&#45;&gt;packages_core_src_3d_ts</title>
<path fill="none" stroke="gray" d="M432.93,-144.06C438.87,-146.66 444.61,-149.63 450,-153 470.84,-166.03 487.31,-188.75 498.02,-206.81"/>
<polygon fill="gray" stroke="gray" points="495.11,-208.78 503.09,-215.76 501.2,-205.33 495.11,-208.78"/>
</g>
<!-- packages_core_src_examples_static&#45;sprite&#45;demo_ts -->
<g id="node9" class="node">
<title>packages_core_src_examples_static&#45;sprite&#45;demo_ts</title>
<polygon fill="#add8e6" stroke="black" points="434,-90 198,-90 198,-54 434,-54 434,-90"/>
<text text-anchor="middle" x="316" y="-68.3" font-family="Times,serif" font-size="14.00">examples/static&#45;sprite&#45;demo.ts</text>
</g>
<!-- packages_core_src_examples_static&#45;sprite&#45;demo_ts&#45;&gt;packages_core_src_3d_ts -->
<g id="edge8" class="edge">
<title>packages_core_src_examples_static&#45;sprite&#45;demo_ts&#45;&gt;packages_core_src_3d_ts</title>
<path fill="none" stroke="gray" d="M434.22,-88.84C439.8,-91.76 445.11,-95.12 450,-99 483.63,-125.66 499.73,-174.69 506.89,-205.75"/>
<polygon fill="gray" stroke="gray" points="503.55,-206.87 509.06,-215.92 510.4,-205.41 503.55,-206.87"/>
</g>
<!-- packages_core_src_examples_texture&#45;loading&#45;demo_ts -->
<g id="node10" class="node">
<title>packages_core_src_examples_texture&#45;loading&#45;demo_ts</title>
<polygon fill="#add8e6" stroke="black" points="446,-36 186,-36 186,0 446,0 446,-36"/>
<text text-anchor="middle" x="316" y="-14.3" font-family="Times,serif" font-size="14.00">examples/texture&#45;loading&#45;demo.ts</text>
</g>
<!-- packages_core_src_examples_texture&#45;loading&#45;demo_ts&#45;&gt;packages_core_src_3d_ts -->
<g id="edge9" class="edge">
<title>packages_core_src_examples_texture&#45;loading&#45;demo_ts&#45;&gt;packages_core_src_3d_ts</title>
<path fill="none" stroke="gray" d="M438.12,-36.17C442.32,-38.78 446.3,-41.71 450,-45 496.76,-86.6 508.39,-164.01 511.19,-205.69"/>
<polygon fill="gray" stroke="gray" points="507.7,-205.92 511.74,-215.72 514.69,-205.54 507.7,-205.92"/>
</g>
<!-- packages_core_src_examples_index_ts -->
<g id="node11" class="node">
<title>packages_core_src_examples_index_ts</title>
<polygon fill="lightblue" stroke="black" points="146,-252 0,-252 0,-216 146,-216 146,-252"/>
<text text-anchor="middle" x="73" y="-230.3" font-family="Times,serif" font-size="14.00">examples/index.ts</text>
</g>
<!-- packages_core_src_examples_index_ts&#45;&gt;packages_core_src_examples_fractal&#45;shader&#45;demo_ts -->
<g id="edge10" class="edge">
<title>packages_core_src_examples_index_ts&#45;&gt;packages_core_src_examples_fractal&#45;shader&#45;demo_ts</title>
<path fill="none" stroke="gray" d="M78.87,-252.25C90.08,-290.52 121.51,-379.27 182,-423 183.9,-424.37 185.85,-425.68 187.85,-426.93"/>
<polygon fill="gray" stroke="gray" points="186.46,-430.16 196.9,-431.99 189.88,-424.05 186.46,-430.16"/>
</g>
<!-- packages_core_src_examples_index_ts&#45;&gt;packages_core_src_examples_lights&#45;phong&#45;demo_ts -->
<g id="edge11" class="edge">
<title>packages_core_src_examples_index_ts&#45;&gt;packages_core_src_examples_lights&#45;phong&#45;demo_ts</title>
<path fill="none" stroke="gray" d="M83.12,-252.24C98.93,-281.82 134.35,-339.91 182,-369 184.68,-370.64 187.44,-372.17 190.26,-373.62"/>
<polygon fill="gray" stroke="gray" points="188.95,-376.87 199.49,-377.94 191.92,-370.53 188.95,-376.87"/>
</g>
<!-- packages_core_src_examples_index_ts&#45;&gt;packages_core_src_examples_physx&#45;planck&#45;2d&#45;demo_ts -->
<g id="edge12" class="edge">
<title>packages_core_src_examples_index_ts&#45;&gt;packages_core_src_examples_physx&#45;planck&#45;2d&#45;demo_ts</title>
<path fill="none" stroke="gray" d="M92.6,-252.11C112.89,-270.8 147.15,-299.36 182,-315 186.47,-317 191.09,-318.86 195.8,-320.58"/>
<polygon fill="gray" stroke="gray" points="195,-324.01 205.6,-323.93 197.26,-317.38 195,-324.01"/>
</g>
<!-- packages_core_src_examples_index_ts&#45;&gt;packages_core_src_examples_physx&#45;rapier&#45;2d&#45;demo_ts -->
<g id="edge13" class="edge">
<title>packages_core_src_examples_index_ts&#45;&gt;packages_core_src_examples_physx&#45;rapier&#45;2d&#45;demo_ts</title>
<path fill="none" stroke="gray" d="M144.19,-252.03C156.75,-255.12 169.75,-258.23 182,-261 192.1,-263.29 202.65,-265.58 213.2,-267.82"/>
<polygon fill="gray" stroke="gray" points="212.8,-271.31 223.31,-269.94 214.24,-264.46 212.8,-271.31"/>
</g>
<!-- packages_core_src_examples_index_ts&#45;&gt;packages_core_src_examples_shader&#45;cube&#45;demo_ts -->
<g id="edge14" class="edge">
<title>packages_core_src_examples_index_ts&#45;&gt;packages_core_src_examples_shader&#45;cube&#45;demo_ts</title>
<path fill="none" stroke="gray" d="M146.31,-234C159.25,-234 173.08,-234 187.04,-234"/>
<polygon fill="gray" stroke="gray" points="187.22,-237.5 197.22,-234 187.22,-230.5 187.22,-237.5"/>
</g>
<!-- packages_core_src_examples_index_ts&#45;&gt;packages_core_src_examples_sprite&#45;animation&#45;demo_ts -->
<g id="edge15" class="edge">
<title>packages_core_src_examples_index_ts&#45;&gt;packages_core_src_examples_sprite&#45;animation&#45;demo_ts</title>
<path fill="none" stroke="gray" d="M144.19,-215.97C156.75,-212.88 169.75,-209.77 182,-207 192.1,-204.71 202.65,-202.42 213.2,-200.18"/>
<polygon fill="gray" stroke="gray" points="214.24,-203.54 223.31,-198.06 212.8,-196.69 214.24,-203.54"/>
</g>
<!-- packages_core_src_examples_index_ts&#45;&gt;packages_core_src_examples_sprite&#45;particle&#45;generator&#45;demo_ts -->
<g id="edge16" class="edge">
<title>packages_core_src_examples_index_ts&#45;&gt;packages_core_src_examples_sprite&#45;particle&#45;generator&#45;demo_ts</title>
<path fill="none" stroke="gray" d="M92.6,-215.89C112.89,-197.2 147.15,-168.64 182,-153 186.47,-151 191.09,-149.14 195.8,-147.42"/>
<polygon fill="gray" stroke="gray" points="197.26,-150.62 205.6,-144.07 195,-143.99 197.26,-150.62"/>
</g>
<!-- packages_core_src_examples_index_ts&#45;&gt;packages_core_src_examples_static&#45;sprite&#45;demo_ts -->
<g id="edge17" class="edge">
<title>packages_core_src_examples_index_ts&#45;&gt;packages_core_src_examples_static&#45;sprite&#45;demo_ts</title>
<path fill="none" stroke="gray" d="M83.12,-215.76C98.93,-186.18 134.35,-128.09 182,-99 184.68,-97.36 187.44,-95.83 190.26,-94.38"/>
<polygon fill="gray" stroke="gray" points="191.92,-97.47 199.49,-90.06 188.95,-91.13 191.92,-97.47"/>
</g>
<!-- packages_core_src_examples_index_ts&#45;&gt;packages_core_src_examples_texture&#45;loading&#45;demo_ts -->
<g id="edge18" class="edge">
<title>packages_core_src_examples_index_ts&#45;&gt;packages_core_src_examples_texture&#45;loading&#45;demo_ts</title>
<path fill="none" stroke="gray" d="M78.87,-215.75C90.08,-177.48 121.51,-88.73 182,-45 183.9,-43.63 185.85,-42.32 187.85,-41.07"/>
<polygon fill="gray" stroke="gray" points="189.88,-43.95 196.9,-36.01 186.46,-37.84 189.88,-43.95"/>
</g>
</g>
</svg>
