<?xml version="1.0" encoding="UTF-8" standalone="no"?>
<!DOCTYPE svg PUBLIC "-//W3C//DTD SVG 1.1//EN"
 "http://www.w3.org/Graphics/SVG/1.1/DTD/svg11.dtd">
<!-- Generated by graphviz version 2.43.0 (0)
 -->
<!-- Title: PerFileDeps Pages: 1 -->
<svg width="708pt" height="260pt"
 viewBox="0.00 0.00 708.00 260.00" xmlns="http://www.w3.org/2000/svg" xmlns:xlink="http://www.w3.org/1999/xlink">
<g id="graph0" class="graph" transform="scale(1 1) rotate(0) translate(4 256)">
<title>PerFileDeps</title>
<polygon fill="white" stroke="transparent" points="-4,4 -4,-256 704,-256 704,4 -4,4"/>
<!-- packages_core_src_lib_tree&#45;sitter_client_ts -->
<g id="node1" class="node">
<title>packages_core_src_lib_tree&#45;sitter_client_ts</title>
<polygon fill="#90ee90" stroke="black" points="421,-144 247,-144 247,-108 421,-108 421,-144"/>
<text text-anchor="middle" x="334" y="-122.3" font-family="Times,serif" font-size="14.00">lib/tree&#45;sitter/client.ts</text>
</g>
<!-- packages_core_src_lib_debounce_ts -->
<g id="node2" class="node">
<title>packages_core_src_lib_debounce_ts</title>
<polygon fill="#ffb6c1" stroke="black" points="641,-252 516,-252 516,-216 641,-216 641,-252"/>
<text text-anchor="middle" x="578.5" y="-230.3" font-family="Times,serif" font-size="14.00">lib/debounce.ts</text>
</g>
<!-- packages_core_src_lib_tree&#45;sitter_client_ts&#45;&gt;packages_core_src_lib_debounce_ts -->
<g id="edge1" class="edge">
<title>packages_core_src_lib_tree&#45;sitter_client_ts&#45;&gt;packages_core_src_lib_debounce_ts</title>
<path fill="none" stroke="gray" d="M356.94,-144.21C380.32,-162.69 419.12,-190.84 457,-207 472.27,-213.51 489.32,-218.56 505.69,-222.42"/>
<polygon fill="gray" stroke="gray" points="505.24,-225.91 515.77,-224.68 506.77,-219.08 505.24,-225.91"/>
</g>
<!-- packages_core_src_lib_queue_ts -->
<g id="node3" class="node">
<title>packages_core_src_lib_queue_ts</title>
<polygon fill="#ffb6c1" stroke="black" points="629,-198 528,-198 528,-162 629,-162 629,-198"/>
<text text-anchor="middle" x="578.5" y="-176.3" font-family="Times,serif" font-size="14.00">lib/queue.ts</text>
</g>
<!-- packages_core_src_lib_tree&#45;sitter_client_ts&#45;&gt;packages_core_src_lib_queue_ts -->
<g id="edge2" class="edge">
<title>packages_core_src_lib_tree&#45;sitter_client_ts&#45;&gt;packages_core_src_lib_queue_ts</title>
<path fill="none" stroke="gray" d="M416.09,-144.06C449.36,-151.47 487.19,-159.89 517.86,-166.72"/>
<polygon fill="gray" stroke="gray" points="517.44,-170.21 527.96,-168.97 518.96,-163.38 517.44,-170.21"/>
</g>
<!-- packages_core_src_lib_tree&#45;sitter_types_ts -->
<g id="node4" class="node">
<title>packages_core_src_lib_tree&#45;sitter_types_ts</title>
<polygon fill="#ffb6c1" stroke="black" points="665,-144 492,-144 492,-108 665,-108 665,-144"/>
<text text-anchor="middle" x="578.5" y="-122.3" font-family="Times,serif" font-size="14.00">lib/tree&#45;sitter/types.ts</text>
</g>
<!-- packages_core_src_lib_tree&#45;sitter_client_ts&#45;&gt;packages_core_src_lib_tree&#45;sitter_types_ts -->
<g id="edge3" class="edge">
<title>packages_core_src_lib_tree&#45;sitter_client_ts&#45;&gt;packages_core_src_lib_tree&#45;sitter_types_ts</title>
<path fill="none" stroke="gray" d="M421.18,-126C440.74,-126 461.64,-126 481.58,-126"/>
<polygon fill="gray" stroke="gray" points="481.6,-129.5 491.6,-126 481.6,-122.5 481.6,-129.5"/>
</g>
<!-- packages_core_src_lib_tree&#45;sitter_default&#45;parsers_ts -->
<g id="node5" class="node">
<title>packages_core_src_lib_tree&#45;sitter_default&#45;parsers_ts</title>
<polygon fill="#ffb6c1" stroke="black" points="700,-90 457,-90 457,-54 700,-54 700,-90"/>
<text text-anchor="middle" x="578.5" y="-68.3" font-family="Times,serif" font-size="14.00">lib/tree&#45;sitter/default&#45;parsers.ts</text>
</g>
<!-- packages_core_src_lib_tree&#45;sitter_client_ts&#45;&gt;packages_core_src_lib_tree&#45;sitter_default&#45;parsers_ts -->
<g id="edge4" class="edge">
<title>packages_core_src_lib_tree&#45;sitter_client_ts&#45;&gt;packages_core_src_lib_tree&#45;sitter_default&#45;parsers_ts</title>
<path fill="none" stroke="gray" d="M416.09,-107.94C438.74,-102.9 463.49,-97.39 486.67,-92.23"/>
<polygon fill="gray" stroke="gray" points="487.49,-95.63 496.49,-90.04 485.97,-88.8 487.49,-95.63"/>
</g>
<!-- packages_core_src_lib_env_ts -->
<g id="node6" class="node">
<title>packages_core_src_lib_env_ts</title>
<polygon fill="#ffb6c1" stroke="black" points="618.5,-36 538.5,-36 538.5,0 618.5,0 618.5,-36"/>
<text text-anchor="middle" x="578.5" y="-14.3" font-family="Times,serif" font-size="14.00">lib/env.ts</text>
</g>
<!-- packages_core_src_lib_tree&#45;sitter_client_ts&#45;&gt;packages_core_src_lib_env_ts -->
<g id="edge5" class="edge">
<title>packages_core_src_lib_tree&#45;sitter_client_ts&#45;&gt;packages_core_src_lib_env_ts</title>
<path fill="none" stroke="gray" d="M356.94,-107.79C380.32,-89.31 419.12,-61.16 457,-45 479.57,-35.37 506.05,-28.95 528.43,-24.8"/>
<polygon fill="gray" stroke="gray" points="529.15,-28.23 538.39,-23.05 527.94,-21.33 529.15,-28.23"/>
</g>
<!-- packages_core_src_lib_tree&#45;sitter&#45;styled&#45;text_ts -->
<g id="node7" class="node">
<title>packages_core_src_lib_tree&#45;sitter&#45;styled&#45;text_ts</title>
<polygon fill="#add8e6" stroke="black" points="211,-171 0,-171 0,-135 211,-135 211,-171"/>
<text text-anchor="middle" x="105.5" y="-149.3" font-family="Times,serif" font-size="14.00">lib/tree&#45;sitter&#45;styled&#45;text.ts</text>
</g>
<!-- packages_core_src_lib_tree&#45;sitter&#45;styled&#45;text_ts&#45;&gt;packages_core_src_lib_tree&#45;sitter_client_ts -->
<g id="edge6" class="edge">
<title>packages_core_src_lib_tree&#45;sitter&#45;styled&#45;text_ts&#45;&gt;packages_core_src_lib_tree&#45;sitter_client_ts</title>
<path fill="none" stroke="gray" d="M211.13,-140.53C219.62,-139.52 228.17,-138.5 236.6,-137.49"/>
<polygon fill="gray" stroke="gray" points="237.28,-140.93 246.8,-136.28 236.45,-133.98 237.28,-140.93"/>
</g>
<!-- packages_core_src_lib_tree&#45;sitter_index_ts -->
<g id="node8" class="node">
<title>packages_core_src_lib_tree&#45;sitter_index_ts</title>
<polygon fill="#add8e6" stroke="black" points="192,-117 19,-117 19,-81 192,-81 192,-117"/>
<text text-anchor="middle" x="105.5" y="-95.3" font-family="Times,serif" font-size="14.00">lib/tree&#45;sitter/index.ts</text>
</g>
<!-- packages_core_src_lib_tree&#45;sitter_index_ts&#45;&gt;packages_core_src_lib_tree&#45;sitter_client_ts -->
<g id="edge7" class="edge">
<title>packages_core_src_lib_tree&#45;sitter_index_ts&#45;&gt;packages_core_src_lib_tree&#45;sitter_client_ts</title>
<path fill="none" stroke="gray" d="M192.13,-109.21C206.69,-110.94 221.89,-112.75 236.7,-114.52"/>
<polygon fill="gray" stroke="gray" points="236.53,-118.02 246.87,-115.73 237.36,-111.07 236.53,-118.02"/>
</g>
</g>
</svg>
