<?xml version="1.0" encoding="UTF-8" standalone="no"?>
<!DOCTYPE svg PUBLIC "-//W3C//DTD SVG 1.1//EN"
 "http://www.w3.org/Graphics/SVG/1.1/DTD/svg11.dtd">
<!-- Generated by graphviz version 2.43.0 (0)
 -->
<!-- Title: PerFileDeps Pages: 1 -->
<svg width="568pt" height="152pt"
 viewBox="0.00 0.00 568.00 152.00" xmlns="http://www.w3.org/2000/svg" xmlns:xlink="http://www.w3.org/1999/xlink">
<g id="graph0" class="graph" transform="scale(1 1) rotate(0) translate(4 148)">
<title>PerFileDeps</title>
<polygon fill="white" stroke="transparent" points="-4,4 -4,-148 564,-148 564,4 -4,4"/>
<!-- packages_core_src_lib_data&#45;paths_ts -->
<g id="node1" class="node">
<title>packages_core_src_lib_data&#45;paths_ts</title>
<polygon fill="#90ee90" stroke="black" points="342,-90 209,-90 209,-54 342,-54 342,-90"/>
<text text-anchor="middle" x="275.5" y="-68.3" font-family="Times,serif" font-size="14.00">lib/data&#45;paths.ts</text>
</g>
<!-- packages_core_src_lib_singleton_ts -->
<g id="node2" class="node">
<title>packages_core_src_lib_singleton_ts</title>
<polygon fill="#ffb6c1" stroke="black" points="530.5,-144 407.5,-144 407.5,-108 530.5,-108 530.5,-144"/>
<text text-anchor="middle" x="469" y="-122.3" font-family="Times,serif" font-size="14.00">lib/singleton.ts</text>
</g>
<!-- packages_core_src_lib_data&#45;paths_ts&#45;&gt;packages_core_src_lib_singleton_ts -->
<g id="edge1" class="edge">
<title>packages_core_src_lib_data&#45;paths_ts&#45;&gt;packages_core_src_lib_singleton_ts</title>
<path fill="none" stroke="gray" d="M340.53,-90.06C358.87,-95.23 378.95,-100.89 397.64,-106.16"/>
<polygon fill="gray" stroke="gray" points="396.69,-109.53 407.27,-108.87 398.59,-102.79 396.69,-109.53"/>
</g>
<!-- packages_core_src_lib_env_ts -->
<g id="node3" class="node">
<title>packages_core_src_lib_env_ts</title>
<polygon fill="#ffb6c1" stroke="black" points="509,-90 429,-90 429,-54 509,-54 509,-90"/>
<text text-anchor="middle" x="469" y="-68.3" font-family="Times,serif" font-size="14.00">lib/env.ts</text>
</g>
<!-- packages_core_src_lib_data&#45;paths_ts&#45;&gt;packages_core_src_lib_env_ts -->
<g id="edge2" class="edge">
<title>packages_core_src_lib_data&#45;paths_ts&#45;&gt;packages_core_src_lib_env_ts</title>
<path fill="none" stroke="gray" d="M342.14,-72C367.32,-72 395.59,-72 418.96,-72"/>
<polygon fill="gray" stroke="gray" points="418.98,-75.5 428.98,-72 418.98,-68.5 418.98,-75.5"/>
</g>
<!-- packages_core_src_lib_validate&#45;dir&#45;name_ts -->
<g id="node4" class="node">
<title>packages_core_src_lib_validate&#45;dir&#45;name_ts</title>
<polygon fill="#ffb6c1" stroke="black" points="560,-36 378,-36 378,0 560,0 560,-36"/>
<text text-anchor="middle" x="469" y="-14.3" font-family="Times,serif" font-size="14.00">lib/validate&#45;dir&#45;name.ts</text>
</g>
<!-- packages_core_src_lib_data&#45;paths_ts&#45;&gt;packages_core_src_lib_validate&#45;dir&#45;name_ts -->
<g id="edge3" class="edge">
<title>packages_core_src_lib_data&#45;paths_ts&#45;&gt;packages_core_src_lib_validate&#45;dir&#45;name_ts</title>
<path fill="none" stroke="gray" d="M340.53,-53.94C357.78,-49.08 376.58,-43.78 394.3,-38.78"/>
<polygon fill="gray" stroke="gray" points="395.35,-42.12 404.03,-36.04 393.45,-35.38 395.35,-42.12"/>
</g>
<!-- packages_core_src_lib_index_ts -->
<g id="node5" class="node">
<title>packages_core_src_lib_index_ts</title>
<polygon fill="#add8e6" stroke="black" points="134.5,-117 38.5,-117 38.5,-81 134.5,-81 134.5,-117"/>
<text text-anchor="middle" x="86.5" y="-95.3" font-family="Times,serif" font-size="14.00">lib/index.ts</text>
</g>
<!-- packages_core_src_lib_index_ts&#45;&gt;packages_core_src_lib_data&#45;paths_ts -->
<g id="edge4" class="edge">
<title>packages_core_src_lib_index_ts&#45;&gt;packages_core_src_lib_data&#45;paths_ts</title>
<path fill="none" stroke="gray" d="M134.69,-92.19C154.12,-89.38 177.11,-86.06 198.79,-82.93"/>
<polygon fill="gray" stroke="gray" points="199.57,-86.36 208.97,-81.46 198.57,-79.43 199.57,-86.36"/>
</g>
<!-- packages_core_src_lib_tree&#45;sitter_index_ts -->
<g id="node6" class="node">
<title>packages_core_src_lib_tree&#45;sitter_index_ts</title>
<polygon fill="#add8e6" stroke="black" points="173,-63 0,-63 0,-27 173,-27 173,-63"/>
<text text-anchor="middle" x="86.5" y="-41.3" font-family="Times,serif" font-size="14.00">lib/tree&#45;sitter/index.ts</text>
</g>
<!-- packages_core_src_lib_tree&#45;sitter_index_ts&#45;&gt;packages_core_src_lib_data&#45;paths_ts -->
<g id="edge5" class="edge">
<title>packages_core_src_lib_tree&#45;sitter_index_ts&#45;&gt;packages_core_src_lib_data&#45;paths_ts</title>
<path fill="none" stroke="gray" d="M173.06,-57.35C181.61,-58.59 190.25,-59.84 198.68,-61.05"/>
<polygon fill="gray" stroke="gray" points="198.46,-64.56 208.85,-62.52 199.46,-57.63 198.46,-64.56"/>
</g>
</g>
</svg>
