<?xml version="1.0" encoding="UTF-8" standalone="no"?>
<!DOCTYPE svg PUBLIC "-//W3C//DTD SVG 1.1//EN"
 "http://www.w3.org/Graphics/SVG/1.1/DTD/svg11.dtd">
<!-- Generated by graphviz version 2.43.0 (0)
 -->
<!-- Title: PerFileDeps Pages: 1 -->
<svg width="1135pt" height="595pt"
 viewBox="0.00 0.00 1135.00 595.00" xmlns="http://www.w3.org/2000/svg" xmlns:xlink="http://www.w3.org/1999/xlink">
<g id="graph0" class="graph" transform="scale(1 1) rotate(0) translate(4 591)">
<title>PerFileDeps</title>
<polygon fill="white" stroke="transparent" points="-4,4 -4,-591 1131,-591 1131,4 -4,4"/>
<!-- packages_core_src_lib_parse_keypress_ts -->
<g id="node1" class="node">
<title>packages_core_src_lib_parse_keypress_ts</title>
<polygon fill="#90ee90" stroke="black" points="891,-275 726,-275 726,-239 891,-239 891,-275"/>
<text text-anchor="middle" x="808.5" y="-253.3" font-family="Times,serif" font-size="14.00">lib/parse.keypress.ts</text>
</g>
<!-- packages_core_src_lib_parse_keypress&#45;kitty_ts -->
<g id="node2" class="node">
<title>packages_core_src_lib_parse_keypress&#45;kitty_ts</title>
<polygon fill="#ffb6c1" stroke="black" points="1127,-275 927,-275 927,-239 1127,-239 1127,-275"/>
<text text-anchor="middle" x="1027" y="-253.3" font-family="Times,serif" font-size="14.00">lib/parse.keypress&#45;kitty.ts</text>
</g>
<!-- packages_core_src_lib_parse_keypress_ts&#45;&gt;packages_core_src_lib_parse_keypress&#45;kitty_ts -->
<g id="edge1" class="edge">
<title>packages_core_src_lib_parse_keypress_ts&#45;&gt;packages_core_src_lib_parse_keypress&#45;kitty_ts</title>
<path fill="none" stroke="gray" d="M865.82,-238.98C894.4,-236.32 929.3,-236.04 959.23,-238.13"/>
<polygon fill="gray" stroke="gray" points="959.34,-241.65 969.59,-238.97 959.9,-234.68 959.34,-241.65"/>
</g>
<!-- packages_core_src_lib_parse_keypress_ts&#45;&gt;packages_core_src_lib_parse_keypress&#45;kitty_ts -->
<g id="edge21" class="edge">
<title>packages_core_src_lib_parse_keypress_ts&#45;&gt;packages_core_src_lib_parse_keypress&#45;kitty_ts</title>
<path fill="none" stroke="gray" d="M865.82,-275.02C894.4,-277.68 929.3,-277.96 959.23,-275.87"/>
<polygon fill="gray" stroke="gray" points="959.9,-279.32 969.59,-275.03 959.34,-272.35 959.9,-279.32"/>
</g>
<!-- packages_core_src_lib_parse_keypress&#45;kitty_ts&#45;&gt;packages_core_src_lib_parse_keypress_ts -->
<g id="edge4" class="edge">
<title>packages_core_src_lib_parse_keypress&#45;kitty_ts&#45;&gt;packages_core_src_lib_parse_keypress_ts</title>
<path fill="none" stroke="gray" d="M926.65,-250.27C918.18,-250.23 909.63,-250.25 901.22,-250.32"/>
<polygon fill="gray" stroke="gray" points="901,-246.82 891.04,-250.44 901.08,-253.82 901,-246.82"/>
</g>
<!-- packages_core_src_lib_parse_keypress&#45;kitty_ts&#45;&gt;packages_core_src_lib_parse_keypress_ts -->
<g id="edge5" class="edge">
<title>packages_core_src_lib_parse_keypress&#45;kitty_ts&#45;&gt;packages_core_src_lib_parse_keypress_ts</title>
<path fill="none" stroke="gray" d="M926.65,-263.73C918.18,-263.77 909.63,-263.75 901.22,-263.68"/>
<polygon fill="gray" stroke="gray" points="901.08,-260.18 891.04,-263.56 901,-267.18 901.08,-260.18"/>
</g>
<!-- packages_core_src_lib_index_ts -->
<g id="node3" class="node">
<title>packages_core_src_lib_index_ts</title>
<polygon fill="#add8e6" stroke="black" points="465,-398 369,-398 369,-362 465,-362 465,-398"/>
<text text-anchor="middle" x="417" y="-376.3" font-family="Times,serif" font-size="14.00">lib/index.ts</text>
</g>
<!-- packages_core_src_lib_index_ts&#45;&gt;packages_core_src_lib_parse_keypress_ts -->
<g id="edge2" class="edge">
<title>packages_core_src_lib_index_ts&#45;&gt;packages_core_src_lib_parse_keypress_ts</title>
<path fill="none" stroke="gray" d="M465.37,-365.04C534.2,-343.31 662.16,-302.9 740.59,-278.13"/>
<polygon fill="gray" stroke="gray" points="741.89,-281.39 750.37,-275.04 739.78,-274.72 741.89,-281.39"/>
</g>
<!-- packages_core_src_lib_KeyHandler_ts -->
<g id="node4" class="node">
<title>packages_core_src_lib_KeyHandler_ts</title>
<polygon fill="#add8e6" stroke="black" points="690,-252 550,-252 550,-216 690,-216 690,-252"/>
<text text-anchor="middle" x="620" y="-230.3" font-family="Times,serif" font-size="14.00">lib/KeyHandler.ts</text>
</g>
<!-- packages_core_src_lib_index_ts&#45;&gt;packages_core_src_lib_KeyHandler_ts -->
<g id="edge16" class="edge">
<title>packages_core_src_lib_index_ts&#45;&gt;packages_core_src_lib_KeyHandler_ts</title>
<path fill="none" stroke="gray" d="M465.07,-369.46C481.37,-364.51 499.25,-357.54 514,-348 533.1,-335.64 572.78,-289.87 597.52,-260.22"/>
<polygon fill="gray" stroke="gray" points="600.38,-262.25 604.07,-252.32 594.99,-257.78 600.38,-262.25"/>
</g>
<!-- packages_core_src_lib_KeyHandler_ts&#45;&gt;packages_core_src_lib_parse_keypress_ts -->
<g id="edge3" class="edge">
<title>packages_core_src_lib_KeyHandler_ts&#45;&gt;packages_core_src_lib_parse_keypress_ts</title>
<path fill="none" stroke="gray" d="M690.18,-242.53C698.53,-243.56 707.15,-244.62 715.75,-245.69"/>
<polygon fill="gray" stroke="gray" points="715.47,-249.18 725.83,-246.93 716.33,-242.23 715.47,-249.18"/>
</g>
<!-- packages_core_src_buffer_ts -->
<g id="node5" class="node">
<title>packages_core_src_buffer_ts</title>
<polygon fill="lightblue" stroke="black" points="180,-533 104,-533 104,-497 180,-497 180,-533"/>
<text text-anchor="middle" x="142" y="-511.3" font-family="Times,serif" font-size="14.00">buffer.ts</text>
</g>
<!-- packages_core_src_buffer_ts&#45;&gt;packages_core_src_lib_index_ts -->
<g id="edge6" class="edge">
<title>packages_core_src_buffer_ts&#45;&gt;packages_core_src_lib_index_ts</title>
<path fill="none" stroke="gray" d="M180.17,-512.9C209.53,-510.08 250.92,-503.47 284,-488 327.02,-467.88 367.96,-430.57 392.53,-405.51"/>
<polygon fill="gray" stroke="gray" points="395.19,-407.79 399.61,-398.16 390.15,-402.94 395.19,-407.79"/>
</g>
<!-- packages_core_src_index_ts -->
<g id="node6" class="node">
<title>packages_core_src_index_ts</title>
<polygon fill="lightblue" stroke="black" points="179,-479 105,-479 105,-443 179,-443 179,-479"/>
<text text-anchor="middle" x="142" y="-457.3" font-family="Times,serif" font-size="14.00">index.ts</text>
</g>
<!-- packages_core_src_index_ts&#45;&gt;packages_core_src_lib_index_ts -->
<g id="edge7" class="edge">
<title>packages_core_src_index_ts&#45;&gt;packages_core_src_lib_index_ts</title>
<path fill="none" stroke="gray" d="M179.11,-456.11C207.88,-451.74 249,-444.4 284,-434 312.73,-425.47 343.8,-412.93 368.57,-402.09"/>
<polygon fill="gray" stroke="gray" points="370.02,-405.27 377.74,-398.02 367.18,-398.87 370.02,-405.27"/>
</g>
<!-- packages_core_src_renderables_Box_ts -->
<g id="node7" class="node">
<title>packages_core_src_renderables_Box_ts</title>
<polygon fill="lightblue" stroke="black" points="218,-425 66,-425 66,-389 218,-389 218,-425"/>
<text text-anchor="middle" x="142" y="-403.3" font-family="Times,serif" font-size="14.00">renderables/Box.ts</text>
</g>
<!-- packages_core_src_renderables_Box_ts&#45;&gt;packages_core_src_lib_index_ts -->
<g id="edge8" class="edge">
<title>packages_core_src_renderables_Box_ts&#45;&gt;packages_core_src_lib_index_ts</title>
<path fill="none" stroke="gray" d="M218.32,-399.55C262.7,-395.16 317.95,-389.7 358.75,-385.66"/>
<polygon fill="gray" stroke="gray" points="359.19,-389.14 368.8,-384.67 358.5,-382.17 359.19,-389.14"/>
</g>
<!-- packages_core_src_renderables_ScrollBar_ts -->
<g id="node8" class="node">
<title>packages_core_src_renderables_ScrollBar_ts</title>
<polygon fill="lightblue" stroke="black" points="237,-263 47,-263 47,-227 237,-227 237,-263"/>
<text text-anchor="middle" x="142" y="-241.3" font-family="Times,serif" font-size="14.00">renderables/ScrollBar.ts</text>
</g>
<!-- packages_core_src_renderables_ScrollBar_ts&#45;&gt;packages_core_src_lib_index_ts -->
<g id="edge9" class="edge">
<title>packages_core_src_renderables_ScrollBar_ts&#45;&gt;packages_core_src_lib_index_ts</title>
<path fill="none" stroke="gray" d="M237.02,-250.32C253.89,-254.66 270.4,-261.47 284,-272 313.55,-294.88 292.03,-323.21 320,-348 331,-357.75 345.07,-364.55 359.03,-369.28"/>
<polygon fill="gray" stroke="gray" points="358.04,-372.64 368.63,-372.23 360.1,-365.94 358.04,-372.64"/>
</g>
<!-- packages_core_src_renderables_ScrollBar_ts&#45;&gt;packages_core_src_lib_KeyHandler_ts -->
<g id="edge18" class="edge">
<title>packages_core_src_renderables_ScrollBar_ts&#45;&gt;packages_core_src_lib_KeyHandler_ts</title>
<path fill="none" stroke="gray" d="M237.28,-253.76C253.58,-257.83 269.82,-263.66 284,-272 305.49,-284.63 297.42,-304.45 320,-315 398.12,-351.48 432.39,-342.82 514,-315 546.13,-304.05 576.07,-278.85 595.7,-259.44"/>
<polygon fill="gray" stroke="gray" points="598.43,-261.65 602.95,-252.06 593.44,-256.74 598.43,-261.65"/>
</g>
<!-- packages_core_src_renderables_ScrollBox_ts -->
<g id="node9" class="node">
<title>packages_core_src_renderables_ScrollBox_ts</title>
<polygon fill="lightblue" stroke="black" points="238.5,-371 45.5,-371 45.5,-335 238.5,-335 238.5,-371"/>
<text text-anchor="middle" x="142" y="-349.3" font-family="Times,serif" font-size="14.00">renderables/ScrollBox.ts</text>
</g>
<!-- packages_core_src_renderables_ScrollBox_ts&#45;&gt;packages_core_src_lib_index_ts -->
<g id="edge10" class="edge">
<title>packages_core_src_renderables_ScrollBox_ts&#45;&gt;packages_core_src_lib_index_ts</title>
<path fill="none" stroke="gray" d="M238.87,-362.48C279,-366.45 324.29,-370.93 359.02,-374.37"/>
<polygon fill="gray" stroke="gray" points="358.69,-377.85 368.99,-375.35 359.38,-370.88 358.69,-377.85"/>
</g>
<!-- packages_core_src_examples_shader&#45;cube&#45;demo_ts -->
<g id="node10" class="node">
<title>packages_core_src_examples_shader&#45;cube&#45;demo_ts</title>
<polygon fill="lightblue" stroke="black" points="260.5,-317 23.5,-317 23.5,-281 260.5,-281 260.5,-317"/>
<text text-anchor="middle" x="142" y="-295.3" font-family="Times,serif" font-size="14.00">examples/shader&#45;cube&#45;demo.ts</text>
</g>
<!-- packages_core_src_examples_shader&#45;cube&#45;demo_ts&#45;&gt;packages_core_src_lib_index_ts -->
<g id="edge11" class="edge">
<title>packages_core_src_examples_shader&#45;cube&#45;demo_ts&#45;&gt;packages_core_src_lib_index_ts</title>
<path fill="none" stroke="gray" d="M256.76,-317.07C266.09,-319.67 275.28,-322.63 284,-326 301.49,-332.76 303,-340.1 320,-348 332.31,-353.72 345.94,-358.91 358.97,-363.36"/>
<polygon fill="gray" stroke="gray" points="358.19,-366.79 368.79,-366.61 360.4,-360.14 358.19,-366.79"/>
</g>
<!-- packages_core_src_examples_vnode&#45;composition&#45;demo_ts -->
<g id="node11" class="node">
<title>packages_core_src_examples_vnode&#45;composition&#45;demo_ts</title>
<polygon fill="lightblue" stroke="black" points="284,-587 0,-587 0,-551 284,-551 284,-587"/>
<text text-anchor="middle" x="142" y="-565.3" font-family="Times,serif" font-size="14.00">examples/vnode&#45;composition&#45;demo.ts</text>
</g>
<!-- packages_core_src_examples_vnode&#45;composition&#45;demo_ts&#45;&gt;packages_core_src_lib_index_ts -->
<g id="edge12" class="edge">
<title>packages_core_src_examples_vnode&#45;composition&#45;demo_ts&#45;&gt;packages_core_src_lib_index_ts</title>
<path fill="none" stroke="gray" d="M266.11,-550.97C272.32,-548.36 278.33,-545.39 284,-542 339.19,-509.06 381.21,-444.12 401.86,-407.25"/>
<polygon fill="gray" stroke="gray" points="405.15,-408.54 406.88,-398.08 399,-405.18 405.15,-408.54"/>
</g>
<!-- packages_core_src_renderer_ts -->
<g id="node12" class="node">
<title>packages_core_src_renderer_ts</title>
<polygon fill="lightblue" stroke="black" points="465,-252 369,-252 369,-216 465,-216 465,-252"/>
<text text-anchor="middle" x="417" y="-230.3" font-family="Times,serif" font-size="14.00">renderer.ts</text>
</g>
<!-- packages_core_src_renderer_ts&#45;&gt;packages_core_src_lib_KeyHandler_ts -->
<g id="edge13" class="edge">
<title>packages_core_src_renderer_ts&#45;&gt;packages_core_src_lib_KeyHandler_ts</title>
<path fill="none" stroke="gray" d="M465.13,-234C487.26,-234 514.25,-234 539.41,-234"/>
<polygon fill="gray" stroke="gray" points="539.69,-237.5 549.69,-234 539.69,-230.5 539.69,-237.5"/>
</g>
<!-- packages_core_src_Renderable_ts -->
<g id="node13" class="node">
<title>packages_core_src_Renderable_ts</title>
<polygon fill="lightblue" stroke="black" points="475,-198 359,-198 359,-162 475,-162 475,-198"/>
<text text-anchor="middle" x="417" y="-176.3" font-family="Times,serif" font-size="14.00">Renderable.ts</text>
</g>
<!-- packages_core_src_Renderable_ts&#45;&gt;packages_core_src_lib_KeyHandler_ts -->
<g id="edge14" class="edge">
<title>packages_core_src_Renderable_ts&#45;&gt;packages_core_src_lib_KeyHandler_ts</title>
<path fill="none" stroke="gray" d="M475.06,-195.33C495.89,-200.93 519.8,-207.35 542.07,-213.33"/>
<polygon fill="gray" stroke="gray" points="541.27,-216.74 551.83,-215.96 543.08,-209.98 541.27,-216.74"/>
</g>
<!-- packages_core_src_types_ts -->
<g id="node14" class="node">
<title>packages_core_src_types_ts</title>
<polygon fill="lightblue" stroke="black" points="454,-144 380,-144 380,-108 454,-108 454,-144"/>
<text text-anchor="middle" x="417" y="-122.3" font-family="Times,serif" font-size="14.00">types.ts</text>
</g>
<!-- packages_core_src_types_ts&#45;&gt;packages_core_src_lib_KeyHandler_ts -->
<g id="edge15" class="edge">
<title>packages_core_src_types_ts&#45;&gt;packages_core_src_lib_KeyHandler_ts</title>
<path fill="none" stroke="gray" d="M454.32,-132.76C472.81,-137.05 495.28,-143.59 514,-153 543.24,-167.69 572.38,-191.04 592.51,-208.9"/>
<polygon fill="gray" stroke="gray" points="590.27,-211.59 600.04,-215.69 594.96,-206.39 590.27,-211.59"/>
</g>
<!-- packages_core_src_renderables_Input_ts -->
<g id="node15" class="node">
<title>packages_core_src_renderables_Input_ts</title>
<polygon fill="lightblue" stroke="black" points="498.5,-90 335.5,-90 335.5,-54 498.5,-54 498.5,-90"/>
<text text-anchor="middle" x="417" y="-68.3" font-family="Times,serif" font-size="14.00">renderables/Input.ts</text>
</g>
<!-- packages_core_src_renderables_Input_ts&#45;&gt;packages_core_src_lib_KeyHandler_ts -->
<g id="edge17" class="edge">
<title>packages_core_src_renderables_Input_ts&#45;&gt;packages_core_src_lib_KeyHandler_ts</title>
<path fill="none" stroke="gray" d="M497.86,-90.06C503.52,-92.66 508.97,-95.62 514,-99 555.31,-126.78 587.55,-176.07 604.88,-206.79"/>
<polygon fill="gray" stroke="gray" points="601.88,-208.61 609.77,-215.68 608.01,-205.23 601.88,-208.61"/>
</g>
<!-- packages_core_src_renderables_Select_ts -->
<g id="node16" class="node">
<title>packages_core_src_renderables_Select_ts</title>
<polygon fill="lightblue" stroke="black" points="501.5,-36 332.5,-36 332.5,0 501.5,0 501.5,-36"/>
<text text-anchor="middle" x="417" y="-14.3" font-family="Times,serif" font-size="14.00">renderables/Select.ts</text>
</g>
<!-- packages_core_src_renderables_Select_ts&#45;&gt;packages_core_src_lib_KeyHandler_ts -->
<g id="edge19" class="edge">
<title>packages_core_src_renderables_Select_ts&#45;&gt;packages_core_src_lib_KeyHandler_ts</title>
<path fill="none" stroke="gray" d="M500.36,-36.19C505.19,-38.75 509.79,-41.67 514,-45 567.48,-87.28 597.92,-164.69 611.1,-206.11"/>
<polygon fill="gray" stroke="gray" points="607.8,-207.29 614.08,-215.82 614.49,-205.23 607.8,-207.29"/>
</g>
<!-- packages_core_src_renderables_TabSelect_ts -->
<g id="node17" class="node">
<title>packages_core_src_renderables_TabSelect_ts</title>
<polygon fill="lightblue" stroke="black" points="514,-306 320,-306 320,-270 514,-270 514,-306"/>
<text text-anchor="middle" x="417" y="-284.3" font-family="Times,serif" font-size="14.00">renderables/TabSelect.ts</text>
</g>
<!-- packages_core_src_renderables_TabSelect_ts&#45;&gt;packages_core_src_lib_KeyHandler_ts -->
<g id="edge20" class="edge">
<title>packages_core_src_renderables_TabSelect_ts&#45;&gt;packages_core_src_lib_KeyHandler_ts</title>
<path fill="none" stroke="gray" d="M485.21,-269.94C503.48,-265.04 523.41,-259.68 542.17,-254.64"/>
<polygon fill="gray" stroke="gray" points="543.1,-258.01 551.85,-252.04 541.29,-251.25 543.1,-258.01"/>
</g>
</g>
</svg>
