<?xml version="1.0" encoding="UTF-8" standalone="no"?>
<!DOCTYPE svg PUBLIC "-//W3C//DTD SVG 1.1//EN"
 "http://www.w3.org/Graphics/SVG/1.1/DTD/svg11.dtd">
<!-- Generated by graphviz version 2.43.0 (0)
 -->
<!-- Title: PerFileDeps Pages: 1 -->
<svg width="460pt" height="314pt"
 viewBox="0.00 0.00 460.00 314.00" xmlns="http://www.w3.org/2000/svg" xmlns:xlink="http://www.w3.org/1999/xlink">
<g id="graph0" class="graph" transform="scale(1 1) rotate(0) translate(4 310)">
<title>PerFileDeps</title>
<polygon fill="white" stroke="transparent" points="-4,4 -4,-310 456,-310 456,4 -4,4"/>
<!-- packages_core_src_lib_tree&#45;sitter_types_ts -->
<g id="node1" class="node">
<title>packages_core_src_lib_tree&#45;sitter_types_ts</title>
<polygon fill="#90ee90" stroke="black" points="452,-171 279,-171 279,-135 452,-135 452,-171"/>
<text text-anchor="middle" x="365.5" y="-149.3" font-family="Times,serif" font-size="14.00">lib/tree&#45;sitter/types.ts</text>
</g>
<!-- packages_core_src_lib_tree&#45;sitter&#45;styled&#45;text_ts -->
<g id="node2" class="node">
<title>packages_core_src_lib_tree&#45;sitter&#45;styled&#45;text_ts</title>
<polygon fill="#add8e6" stroke="black" points="227,-306 16,-306 16,-270 227,-270 227,-306"/>
<text text-anchor="middle" x="121.5" y="-284.3" font-family="Times,serif" font-size="14.00">lib/tree&#45;sitter&#45;styled&#45;text.ts</text>
</g>
<!-- packages_core_src_lib_tree&#45;sitter&#45;styled&#45;text_ts&#45;&gt;packages_core_src_lib_tree&#45;sitter_types_ts -->
<g id="edge1" class="edge">
<title>packages_core_src_lib_tree&#45;sitter&#45;styled&#45;text_ts&#45;&gt;packages_core_src_lib_tree&#45;sitter_types_ts</title>
<path fill="none" stroke="gray" d="M222.24,-269.91C229.42,-267.33 236.42,-264.37 243,-261 282.89,-240.56 320.05,-203.92 342.51,-179.04"/>
<polygon fill="gray" stroke="gray" points="345.26,-181.22 349.27,-171.41 340.02,-176.57 345.26,-181.22"/>
</g>
<!-- packages_core_src_lib_tree&#45;sitter_client_ts -->
<g id="node3" class="node">
<title>packages_core_src_lib_tree&#45;sitter_client_ts</title>
<polygon fill="#add8e6" stroke="black" points="208.5,-252 34.5,-252 34.5,-216 208.5,-216 208.5,-252"/>
<text text-anchor="middle" x="121.5" y="-230.3" font-family="Times,serif" font-size="14.00">lib/tree&#45;sitter/client.ts</text>
</g>
<!-- packages_core_src_lib_tree&#45;sitter_client_ts&#45;&gt;packages_core_src_lib_tree&#45;sitter_types_ts -->
<g id="edge2" class="edge">
<title>packages_core_src_lib_tree&#45;sitter_client_ts&#45;&gt;packages_core_src_lib_tree&#45;sitter_types_ts</title>
<path fill="none" stroke="gray" d="M208.65,-216.89C220.29,-213.94 232.01,-210.63 243,-207 268.98,-198.41 296.96,-186.19 319.51,-175.55"/>
<polygon fill="gray" stroke="gray" points="321.31,-178.57 328.82,-171.1 318.29,-172.26 321.31,-178.57"/>
</g>
<!-- packages_core_src_lib_tree&#45;sitter_default&#45;parsers_ts -->
<g id="node4" class="node">
<title>packages_core_src_lib_tree&#45;sitter_default&#45;parsers_ts</title>
<polygon fill="#add8e6" stroke="black" points="243,-198 0,-198 0,-162 243,-162 243,-198"/>
<text text-anchor="middle" x="121.5" y="-176.3" font-family="Times,serif" font-size="14.00">lib/tree&#45;sitter/default&#45;parsers.ts</text>
</g>
<!-- packages_core_src_lib_tree&#45;sitter_default&#45;parsers_ts&#45;&gt;packages_core_src_lib_tree&#45;sitter_types_ts -->
<g id="edge3" class="edge">
<title>packages_core_src_lib_tree&#45;sitter_default&#45;parsers_ts&#45;&gt;packages_core_src_lib_tree&#45;sitter_types_ts</title>
<path fill="none" stroke="gray" d="M243.15,-166.54C251.73,-165.58 260.32,-164.62 268.74,-163.68"/>
<polygon fill="gray" stroke="gray" points="269.36,-167.14 278.91,-162.55 268.58,-160.18 269.36,-167.14"/>
</g>
<!-- packages_core_src_lib_tree&#45;sitter_index_ts -->
<g id="node5" class="node">
<title>packages_core_src_lib_tree&#45;sitter_index_ts</title>
<polygon fill="#add8e6" stroke="black" points="208,-144 35,-144 35,-108 208,-108 208,-144"/>
<text text-anchor="middle" x="121.5" y="-122.3" font-family="Times,serif" font-size="14.00">lib/tree&#45;sitter/index.ts</text>
</g>
<!-- packages_core_src_lib_tree&#45;sitter_index_ts&#45;&gt;packages_core_src_lib_tree&#45;sitter_types_ts -->
<g id="edge4" class="edge">
<title>packages_core_src_lib_tree&#45;sitter_index_ts&#45;&gt;packages_core_src_lib_tree&#45;sitter_types_ts</title>
<path fill="none" stroke="gray" d="M208.16,-135.56C227.82,-137.75 248.84,-140.1 268.89,-142.33"/>
<polygon fill="gray" stroke="gray" points="268.63,-145.83 278.95,-143.46 269.4,-138.87 268.63,-145.83"/>
</g>
<!-- packages_core_src_lib_tree&#45;sitter_assets_update_ts -->
<g id="node6" class="node">
<title>packages_core_src_lib_tree&#45;sitter_assets_update_ts</title>
<polygon fill="#add8e6" stroke="black" points="238,-90 5,-90 5,-54 238,-54 238,-90"/>
<text text-anchor="middle" x="121.5" y="-68.3" font-family="Times,serif" font-size="14.00">lib/tree&#45;sitter/assets/update.ts</text>
</g>
<!-- packages_core_src_lib_tree&#45;sitter_assets_update_ts&#45;&gt;packages_core_src_lib_tree&#45;sitter_types_ts -->
<g id="edge5" class="edge">
<title>packages_core_src_lib_tree&#45;sitter_assets_update_ts&#45;&gt;packages_core_src_lib_tree&#45;sitter_types_ts</title>
<path fill="none" stroke="gray" d="M212.21,-90.03C222.67,-92.74 233.13,-95.74 243,-99 268.98,-107.59 296.96,-119.81 319.51,-130.45"/>
<polygon fill="gray" stroke="gray" points="318.29,-133.74 328.82,-134.9 321.31,-127.43 318.29,-133.74"/>
</g>
<!-- packages_core_src_lib_tree&#45;sitter_parser_worker_ts -->
<g id="node7" class="node">
<title>packages_core_src_lib_tree&#45;sitter_parser_worker_ts</title>
<polygon fill="#add8e6" stroke="black" points="238,-36 5,-36 5,0 238,0 238,-36"/>
<text text-anchor="middle" x="121.5" y="-14.3" font-family="Times,serif" font-size="14.00">lib/tree&#45;sitter/parser.worker.ts</text>
</g>
<!-- packages_core_src_lib_tree&#45;sitter_parser_worker_ts&#45;&gt;packages_core_src_lib_tree&#45;sitter_types_ts -->
<g id="edge6" class="edge">
<title>packages_core_src_lib_tree&#45;sitter_parser_worker_ts&#45;&gt;packages_core_src_lib_tree&#45;sitter_types_ts</title>
<path fill="none" stroke="gray" d="M222.24,-36.09C229.42,-38.67 236.42,-41.63 243,-45 282.89,-65.44 320.05,-102.08 342.51,-126.96"/>
<polygon fill="gray" stroke="gray" points="340.02,-129.43 349.27,-134.59 345.26,-124.78 340.02,-129.43"/>
</g>
</g>
</svg>
