<?xml version="1.0" encoding="UTF-8" standalone="no"?>
<!DOCTYPE svg PUBLIC "-//W3C//DTD SVG 1.1//EN"
 "http://www.w3.org/Graphics/SVG/1.1/DTD/svg11.dtd">
<!-- Generated by graphviz version 2.43.0 (0)
 -->
<!-- Title: PerFileDeps Pages: 1 -->
<svg width="505pt" height="98pt"
 viewBox="0.00 0.00 505.00 98.00" xmlns="http://www.w3.org/2000/svg" xmlns:xlink="http://www.w3.org/1999/xlink">
<g id="graph0" class="graph" transform="scale(1 1) rotate(0) translate(4 94)">
<title>PerFileDeps</title>
<polygon fill="white" stroke="transparent" points="-4,4 -4,-94 501,-94 501,4 -4,4"/>
<!-- packages_core_src_post_filters_ts -->
<g id="node1" class="node">
<title>packages_core_src_post_filters_ts</title>
<polygon fill="#90ee90" stroke="black" points="385,-63 273,-63 273,-27 385,-27 385,-63"/>
<text text-anchor="middle" x="329" y="-41.3" font-family="Times,serif" font-size="14.00">post/filters.ts</text>
</g>
<!-- packages_core_src_buffer_ts -->
<g id="node2" class="node">
<title>packages_core_src_buffer_ts</title>
<polygon fill="#ffb6c1" stroke="black" points="497,-63 421,-63 421,-27 497,-27 497,-63"/>
<text text-anchor="middle" x="459" y="-41.3" font-family="Times,serif" font-size="14.00">buffer.ts</text>
</g>
<!-- packages_core_src_post_filters_ts&#45;&gt;packages_core_src_buffer_ts -->
<g id="edge1" class="edge">
<title>packages_core_src_post_filters_ts&#45;&gt;packages_core_src_buffer_ts</title>
<path fill="none" stroke="gray" d="M385.03,-45C393.51,-45 402.2,-45 410.5,-45"/>
<polygon fill="gray" stroke="gray" points="410.75,-48.5 420.75,-45 410.75,-41.5 410.75,-48.5"/>
</g>
<!-- packages_core_src_index_ts -->
<g id="node3" class="node">
<title>packages_core_src_index_ts</title>
<polygon fill="#add8e6" stroke="black" points="155.5,-90 81.5,-90 81.5,-54 155.5,-54 155.5,-90"/>
<text text-anchor="middle" x="118.5" y="-68.3" font-family="Times,serif" font-size="14.00">index.ts</text>
</g>
<!-- packages_core_src_index_ts&#45;&gt;packages_core_src_post_filters_ts -->
<g id="edge2" class="edge">
<title>packages_core_src_index_ts&#45;&gt;packages_core_src_post_filters_ts</title>
<path fill="none" stroke="gray" d="M155.82,-67.3C185.23,-63.49 227.43,-58.02 262.68,-53.46"/>
<polygon fill="gray" stroke="gray" points="263.44,-56.89 272.9,-52.13 262.54,-49.95 263.44,-56.89"/>
</g>
<!-- packages_core_src_examples_shader&#45;cube&#45;demo_ts -->
<g id="node4" class="node">
<title>packages_core_src_examples_shader&#45;cube&#45;demo_ts</title>
<polygon fill="#add8e6" stroke="black" points="237,-36 0,-36 0,0 237,0 237,-36"/>
<text text-anchor="middle" x="118.5" y="-14.3" font-family="Times,serif" font-size="14.00">examples/shader&#45;cube&#45;demo.ts</text>
</g>
<!-- packages_core_src_examples_shader&#45;cube&#45;demo_ts&#45;&gt;packages_core_src_post_filters_ts -->
<g id="edge3" class="edge">
<title>packages_core_src_examples_shader&#45;cube&#45;demo_ts&#45;&gt;packages_core_src_post_filters_ts</title>
<path fill="none" stroke="gray" d="M237.16,-33.24C245.86,-34.36 254.43,-35.47 262.64,-36.54"/>
<polygon fill="gray" stroke="gray" points="262.44,-40.04 272.81,-37.85 263.34,-33.1 262.44,-40.04"/>
</g>
</g>
</svg>
