<?xml version="1.0" encoding="UTF-8" standalone="no"?>
<!DOCTYPE svg PUBLIC "-//W3C//DTD SVG 1.1//EN"
 "http://www.w3.org/Graphics/SVG/1.1/DTD/svg11.dtd">
<!-- Generated by graphviz version 2.43.0 (0)
 -->
<!-- Title: PerFileDeps Pages: 1 -->
<svg width="607pt" height="152pt"
 viewBox="0.00 0.00 607.00 152.00" xmlns="http://www.w3.org/2000/svg" xmlns:xlink="http://www.w3.org/1999/xlink">
<g id="graph0" class="graph" transform="scale(1 1) rotate(0) translate(4 148)">
<title>PerFileDeps</title>
<polygon fill="white" stroke="transparent" points="-4,4 -4,-148 603,-148 603,4 -4,4"/>
<!-- packages_core_src_renderables_FrameBuffer_ts -->
<g id="node1" class="node">
<title>packages_core_src_renderables_FrameBuffer_ts</title>
<polygon fill="#90ee90" stroke="black" points="447,-90 233,-90 233,-54 447,-54 447,-90"/>
<text text-anchor="middle" x="340" y="-68.3" font-family="Times,serif" font-size="14.00">renderables/FrameBuffer.ts</text>
</g>
<!-- packages_core_src_Renderable_ts -->
<g id="node2" class="node">
<title>packages_core_src_Renderable_ts</title>
<polygon fill="#ffb6c1" stroke="black" points="599,-144 483,-144 483,-108 599,-108 599,-144"/>
<text text-anchor="middle" x="541" y="-122.3" font-family="Times,serif" font-size="14.00">Renderable.ts</text>
</g>
<!-- packages_core_src_renderables_FrameBuffer_ts&#45;&gt;packages_core_src_Renderable_ts -->
<g id="edge1" class="edge">
<title>packages_core_src_renderables_FrameBuffer_ts&#45;&gt;packages_core_src_Renderable_ts</title>
<path fill="none" stroke="gray" d="M407.54,-90.06C428.61,-95.77 451.9,-102.09 473,-107.82"/>
<polygon fill="gray" stroke="gray" points="472.28,-111.25 482.85,-110.49 474.11,-104.49 472.28,-111.25"/>
</g>
<!-- packages_core_src_buffer_ts -->
<g id="node3" class="node">
<title>packages_core_src_buffer_ts</title>
<polygon fill="#ffb6c1" stroke="black" points="579,-90 503,-90 503,-54 579,-54 579,-90"/>
<text text-anchor="middle" x="541" y="-68.3" font-family="Times,serif" font-size="14.00">buffer.ts</text>
</g>
<!-- packages_core_src_renderables_FrameBuffer_ts&#45;&gt;packages_core_src_buffer_ts -->
<g id="edge2" class="edge">
<title>packages_core_src_renderables_FrameBuffer_ts&#45;&gt;packages_core_src_buffer_ts</title>
<path fill="none" stroke="gray" d="M447.2,-72C463.14,-72 478.85,-72 492.69,-72"/>
<polygon fill="gray" stroke="gray" points="492.87,-75.5 502.87,-72 492.87,-68.5 492.87,-75.5"/>
</g>
<!-- packages_core_src_types_ts -->
<g id="node4" class="node">
<title>packages_core_src_types_ts</title>
<polygon fill="#ffb6c1" stroke="black" points="578,-36 504,-36 504,0 578,0 578,-36"/>
<text text-anchor="middle" x="541" y="-14.3" font-family="Times,serif" font-size="14.00">types.ts</text>
</g>
<!-- packages_core_src_renderables_FrameBuffer_ts&#45;&gt;packages_core_src_types_ts -->
<g id="edge3" class="edge">
<title>packages_core_src_renderables_FrameBuffer_ts&#45;&gt;packages_core_src_types_ts</title>
<path fill="none" stroke="gray" d="M407.54,-53.94C435.97,-46.23 468.44,-37.42 494.12,-30.45"/>
<polygon fill="gray" stroke="gray" points="495.23,-33.77 503.97,-27.78 493.4,-27.02 495.23,-33.77"/>
</g>
<!-- packages_core_src_renderables_index_ts -->
<g id="node5" class="node">
<title>packages_core_src_renderables_index_ts</title>
<polygon fill="#add8e6" stroke="black" points="180.5,-117 16.5,-117 16.5,-81 180.5,-81 180.5,-117"/>
<text text-anchor="middle" x="98.5" y="-95.3" font-family="Times,serif" font-size="14.00">renderables/index.ts</text>
</g>
<!-- packages_core_src_renderables_index_ts&#45;&gt;packages_core_src_renderables_FrameBuffer_ts -->
<g id="edge4" class="edge">
<title>packages_core_src_renderables_index_ts&#45;&gt;packages_core_src_renderables_FrameBuffer_ts</title>
<path fill="none" stroke="gray" d="M180.58,-89.86C194.12,-88.33 208.4,-86.72 222.62,-85.12"/>
<polygon fill="gray" stroke="gray" points="223.4,-88.55 232.95,-83.96 222.62,-81.6 223.4,-88.55"/>
</g>
<!-- packages_core_src_renderables_ASCIIFont_ts -->
<g id="node6" class="node">
<title>packages_core_src_renderables_ASCIIFont_ts</title>
<polygon fill="#add8e6" stroke="black" points="197,-63 0,-63 0,-27 197,-27 197,-63"/>
<text text-anchor="middle" x="98.5" y="-41.3" font-family="Times,serif" font-size="14.00">renderables/ASCIIFont.ts</text>
</g>
<!-- packages_core_src_renderables_ASCIIFont_ts&#45;&gt;packages_core_src_renderables_FrameBuffer_ts -->
<g id="edge5" class="edge">
<title>packages_core_src_renderables_ASCIIFont_ts&#45;&gt;packages_core_src_renderables_FrameBuffer_ts</title>
<path fill="none" stroke="gray" d="M197.26,-56.02C205.72,-56.97 214.33,-57.95 222.92,-58.91"/>
<polygon fill="gray" stroke="gray" points="222.65,-62.4 232.97,-60.05 223.43,-55.45 222.65,-62.4"/>
</g>
</g>
</svg>
