<?xml version="1.0" encoding="UTF-8" standalone="no"?>
<!DOCTYPE svg PUBLIC "-//W3C//DTD SVG 1.1//EN"
 "http://www.w3.org/Graphics/SVG/1.1/DTD/svg11.dtd">
<!-- Generated by graphviz version 2.43.0 (0)
 -->
<!-- Title: PerFileDeps Pages: 1 -->
<svg width="658pt" height="209pt"
 viewBox="0.00 0.00 658.00 209.00" xmlns="http://www.w3.org/2000/svg" xmlns:xlink="http://www.w3.org/1999/xlink">
<g id="graph0" class="graph" transform="scale(1 1) rotate(0) translate(4 205)">
<title>PerFileDeps</title>
<polygon fill="white" stroke="transparent" points="-4,4 -4,-205 654,-205 654,4 -4,4"/>
<!-- packages_core_src_testing_ts -->
<g id="node1" class="node">
<title>packages_core_src_testing_ts</title>
<polygon fill="#90ee90" stroke="black" points="85,-105 0,-105 0,-69 85,-69 85,-105"/>
<text text-anchor="middle" x="42.5" y="-83.3" font-family="Times,serif" font-size="14.00">testing.ts</text>
</g>
<!-- packages_core_src_testing_test&#45;renderer_ts -->
<g id="node2" class="node">
<title>packages_core_src_testing_test&#45;renderer_ts</title>
<polygon fill="#ffb6c1" stroke="black" points="304,-128 121,-128 121,-92 304,-92 304,-128"/>
<text text-anchor="middle" x="212.5" y="-106.3" font-family="Times,serif" font-size="14.00">testing/test&#45;renderer.ts</text>
</g>
<!-- packages_core_src_testing_ts&#45;&gt;packages_core_src_testing_test&#45;renderer_ts -->
<g id="edge1" class="edge">
<title>packages_core_src_testing_ts&#45;&gt;packages_core_src_testing_test&#45;renderer_ts</title>
<path fill="none" stroke="gray" d="M85.03,-92.69C93.01,-93.78 101.68,-94.96 110.61,-96.19"/>
<polygon fill="gray" stroke="gray" points="110.41,-99.69 120.79,-97.58 111.36,-92.76 110.41,-99.69"/>
</g>
<!-- packages_core_src_testing_mock&#45;keys_ts -->
<g id="node3" class="node">
<title>packages_core_src_testing_mock&#45;keys_ts</title>
<polygon fill="#ffb6c1" stroke="black" points="511,-197 347,-197 347,-161 511,-161 511,-197"/>
<text text-anchor="middle" x="429" y="-175.3" font-family="Times,serif" font-size="14.00">testing/mock&#45;keys.ts</text>
</g>
<!-- packages_core_src_testing_ts&#45;&gt;packages_core_src_testing_mock&#45;keys_ts -->
<g id="edge2" class="edge">
<title>packages_core_src_testing_ts&#45;&gt;packages_core_src_testing_mock&#45;keys_ts</title>
<path fill="none" stroke="gray" d="M65.82,-105.17C80.59,-116.2 100.88,-129.55 121,-137 190.53,-162.73 274.18,-172.93 336.59,-176.86"/>
<polygon fill="gray" stroke="gray" points="336.62,-180.37 346.81,-177.46 337.04,-173.38 336.62,-180.37"/>
</g>
<!-- packages_core_src_testing_mock&#45;mouse_ts -->
<g id="node4" class="node">
<title>packages_core_src_testing_mock&#45;mouse_ts</title>
<polygon fill="#ffb6c1" stroke="black" points="518,-51 340,-51 340,-15 518,-15 518,-51"/>
<text text-anchor="middle" x="429" y="-29.3" font-family="Times,serif" font-size="14.00">testing/mock&#45;mouse.ts</text>
</g>
<!-- packages_core_src_testing_ts&#45;&gt;packages_core_src_testing_mock&#45;mouse_ts -->
<g id="edge3" class="edge">
<title>packages_core_src_testing_ts&#45;&gt;packages_core_src_testing_mock&#45;mouse_ts</title>
<path fill="none" stroke="gray" d="M85.01,-81.17C143.21,-73 250.78,-57.89 330,-46.76"/>
<polygon fill="gray" stroke="gray" points="330.58,-50.22 340,-45.36 329.61,-43.28 330.58,-50.22"/>
</g>
<!-- packages_core_src_testing_spy_ts -->
<g id="node5" class="node">
<title>packages_core_src_testing_spy_ts</title>
<polygon fill="#ffb6c1" stroke="black" points="268.5,-36 156.5,-36 156.5,0 268.5,0 268.5,-36"/>
<text text-anchor="middle" x="212.5" y="-14.3" font-family="Times,serif" font-size="14.00">testing/spy.ts</text>
</g>
<!-- packages_core_src_testing_ts&#45;&gt;packages_core_src_testing_spy_ts -->
<g id="edge4" class="edge">
<title>packages_core_src_testing_ts&#45;&gt;packages_core_src_testing_spy_ts</title>
<path fill="none" stroke="gray" d="M79.42,-68.88C92.39,-62.6 107.23,-55.7 121,-50 129.68,-46.4 138.94,-42.84 148.08,-39.46"/>
<polygon fill="gray" stroke="gray" points="149.34,-42.73 157.55,-36.03 146.95,-36.15 149.34,-42.73"/>
</g>
<!-- packages_core_src_testing_test&#45;renderer_ts&#45;&gt;packages_core_src_testing_mock&#45;keys_ts -->
<g id="edge7" class="edge">
<title>packages_core_src_testing_test&#45;renderer_ts&#45;&gt;packages_core_src_testing_mock&#45;keys_ts</title>
<path fill="none" stroke="gray" d="M269.58,-128.04C297.9,-137.15 332.45,-148.26 362.05,-157.78"/>
<polygon fill="gray" stroke="gray" points="361.29,-161.22 371.88,-160.95 363.43,-154.55 361.29,-161.22"/>
</g>
<!-- packages_core_src_testing_test&#45;renderer_ts&#45;&gt;packages_core_src_testing_mock&#45;mouse_ts -->
<g id="edge8" class="edge">
<title>packages_core_src_testing_test&#45;renderer_ts&#45;&gt;packages_core_src_testing_mock&#45;mouse_ts</title>
<path fill="none" stroke="gray" d="M268,-91.96C279.97,-87.66 292.5,-82.89 304,-78 320.46,-71 323.39,-66.65 340,-60 344.79,-58.08 349.78,-56.22 354.83,-54.43"/>
<polygon fill="gray" stroke="gray" points="356.27,-57.63 364.59,-51.07 353.99,-51.01 356.27,-57.63"/>
</g>
<!-- packages_core_src_renderer_ts -->
<g id="node6" class="node">
<title>packages_core_src_renderer_ts</title>
<polygon fill="lightblue" stroke="black" points="650,-147 554,-147 554,-111 650,-111 650,-147"/>
<text text-anchor="middle" x="602" y="-125.3" font-family="Times,serif" font-size="14.00">renderer.ts</text>
</g>
<!-- packages_core_src_testing_test&#45;renderer_ts&#45;&gt;packages_core_src_renderer_ts -->
<g id="edge5" class="edge">
<title>packages_core_src_testing_test&#45;renderer_ts&#45;&gt;packages_core_src_renderer_ts</title>
<path fill="none" stroke="gray" d="M304.35,-114.45C378.41,-118.09 480.73,-123.1 543.79,-126.19"/>
<polygon fill="gray" stroke="gray" points="543.79,-129.7 553.95,-126.69 544.13,-122.71 543.79,-129.7"/>
</g>
<!-- packages_core_src_zig_ts -->
<g id="node7" class="node">
<title>packages_core_src_zig_ts</title>
<polygon fill="lightblue" stroke="black" points="457,-105 401,-105 401,-69 457,-69 457,-105"/>
<text text-anchor="middle" x="429" y="-83.3" font-family="Times,serif" font-size="14.00">zig.ts</text>
</g>
<!-- packages_core_src_testing_test&#45;renderer_ts&#45;&gt;packages_core_src_zig_ts -->
<g id="edge6" class="edge">
<title>packages_core_src_testing_test&#45;renderer_ts&#45;&gt;packages_core_src_zig_ts</title>
<path fill="none" stroke="gray" d="M304.16,-100.28C334.63,-97.01 366.94,-93.55 390.92,-90.98"/>
<polygon fill="gray" stroke="gray" points="391.41,-94.44 400.98,-89.9 390.66,-87.48 391.41,-94.44"/>
</g>
<!-- packages_core_src_testing_mock&#45;keys_ts&#45;&gt;packages_core_src_renderer_ts -->
<g id="edge9" class="edge">
<title>packages_core_src_testing_mock&#45;keys_ts&#45;&gt;packages_core_src_renderer_ts</title>
<path fill="none" stroke="gray" d="M491.73,-160.95C508.85,-155.94 527.34,-150.54 544.16,-145.62"/>
<polygon fill="gray" stroke="gray" points="545.23,-148.95 553.85,-142.79 543.27,-142.23 545.23,-148.95"/>
</g>
<!-- packages_core_src_ansi_ts -->
<g id="node8" class="node">
<title>packages_core_src_ansi_ts</title>
<polygon fill="lightblue" stroke="black" points="634,-201 570,-201 570,-165 634,-165 634,-201"/>
<text text-anchor="middle" x="602" y="-179.3" font-family="Times,serif" font-size="14.00">ansi.ts</text>
</g>
<!-- packages_core_src_testing_mock&#45;keys_ts&#45;&gt;packages_core_src_ansi_ts -->
<g id="edge10" class="edge">
<title>packages_core_src_testing_mock&#45;keys_ts&#45;&gt;packages_core_src_ansi_ts</title>
<path fill="none" stroke="gray" d="M511.24,-180.9C528.02,-181.29 545.02,-181.69 559.65,-182.03"/>
<polygon fill="gray" stroke="gray" points="559.76,-185.54 569.84,-182.27 559.93,-178.54 559.76,-185.54"/>
</g>
<!-- packages_core_src_testing_mock&#45;mouse_ts&#45;&gt;packages_core_src_renderer_ts -->
<g id="edge11" class="edge">
<title>packages_core_src_testing_mock&#45;mouse_ts&#45;&gt;packages_core_src_renderer_ts</title>
<path fill="none" stroke="gray" d="M498.37,-51C505.16,-53.66 511.81,-56.66 518,-60 539.34,-71.54 560.32,-89.05 575.84,-103.54"/>
<polygon fill="gray" stroke="gray" points="573.79,-106.42 583.44,-110.8 578.63,-101.36 573.79,-106.42"/>
</g>
</g>
</svg>
