<?xml version="1.0" encoding="UTF-8" standalone="no"?>
<!DOCTYPE svg PUBLIC "-//W3C//DTD SVG 1.1//EN"
 "http://www.w3.org/Graphics/SVG/1.1/DTD/svg11.dtd">
<!-- Generated by graphviz version 2.43.0 (0)
 -->
<!-- Title: PerFileDeps Pages: 1 -->
<svg width="604pt" height="368pt"
 viewBox="0.00 0.00 604.00 368.00" xmlns="http://www.w3.org/2000/svg" xmlns:xlink="http://www.w3.org/1999/xlink">
<g id="graph0" class="graph" transform="scale(1 1) rotate(0) translate(4 364)">
<title>PerFileDeps</title>
<polygon fill="white" stroke="transparent" points="-4,4 -4,-364 600,-364 600,4 -4,4"/>
<!-- packages_core_src_text&#45;buffer_ts -->
<g id="node1" class="node">
<title>packages_core_src_text&#45;buffer_ts</title>
<polygon fill="#90ee90" stroke="black" points="426,-198 317,-198 317,-162 426,-162 426,-198"/>
<text text-anchor="middle" x="371.5" y="-176.3" font-family="Times,serif" font-size="14.00">text&#45;buffer.ts</text>
</g>
<!-- packages_core_src_lib_styled&#45;text_ts -->
<g id="node2" class="node">
<title>packages_core_src_lib_styled&#45;text_ts</title>
<polygon fill="#ffb6c1" stroke="black" points="596,-279 462,-279 462,-243 596,-243 596,-279"/>
<text text-anchor="middle" x="529" y="-257.3" font-family="Times,serif" font-size="14.00">lib/styled&#45;text.ts</text>
</g>
<!-- packages_core_src_text&#45;buffer_ts&#45;&gt;packages_core_src_lib_styled&#45;text_ts -->
<g id="edge1" class="edge">
<title>packages_core_src_text&#45;buffer_ts&#45;&gt;packages_core_src_lib_styled&#45;text_ts</title>
<path fill="none" stroke="gray" d="M413.63,-198.18C428.58,-206.83 445.78,-216.85 462,-225 471.56,-229.8 482.18,-234.44 492.06,-238.82"/>
<polygon fill="gray" stroke="gray" points="490.69,-242.04 501.25,-242.94 493.55,-235.65 490.69,-242.04"/>
</g>
<!-- packages_core_src_lib_RGBA_ts -->
<g id="node3" class="node">
<title>packages_core_src_lib_RGBA_ts</title>
<polygon fill="#ffb6c1" stroke="black" points="578.5,-225 479.5,-225 479.5,-189 578.5,-189 578.5,-225"/>
<text text-anchor="middle" x="529" y="-203.3" font-family="Times,serif" font-size="14.00">lib/RGBA.ts</text>
</g>
<!-- packages_core_src_text&#45;buffer_ts&#45;&gt;packages_core_src_lib_RGBA_ts -->
<g id="edge2" class="edge">
<title>packages_core_src_text&#45;buffer_ts&#45;&gt;packages_core_src_lib_RGBA_ts</title>
<path fill="none" stroke="gray" d="M426.01,-189.29C439.94,-191.71 455.02,-194.33 469.2,-196.79"/>
<polygon fill="gray" stroke="gray" points="468.89,-200.29 479.34,-198.55 470.09,-193.39 468.89,-200.29"/>
</g>
<!-- packages_core_src_zig_ts -->
<g id="node4" class="node">
<title>packages_core_src_zig_ts</title>
<polygon fill="#ffb6c1" stroke="black" points="557,-171 501,-171 501,-135 557,-135 557,-171"/>
<text text-anchor="middle" x="529" y="-149.3" font-family="Times,serif" font-size="14.00">zig.ts</text>
</g>
<!-- packages_core_src_text&#45;buffer_ts&#45;&gt;packages_core_src_zig_ts -->
<g id="edge3" class="edge">
<title>packages_core_src_text&#45;buffer_ts&#45;&gt;packages_core_src_zig_ts</title>
<path fill="none" stroke="gray" d="M426.01,-164.26C447.31,-160.02 471.31,-156.05 490.67,-153.62"/>
<polygon fill="gray" stroke="gray" points="491.09,-157.09 500.62,-152.47 490.28,-150.14 491.09,-157.09"/>
</g>
<!-- packages_core_src_types_ts -->
<g id="node5" class="node">
<title>packages_core_src_types_ts</title>
<polygon fill="#ffb6c1" stroke="black" points="566,-117 492,-117 492,-81 566,-81 566,-117"/>
<text text-anchor="middle" x="529" y="-95.3" font-family="Times,serif" font-size="14.00">types.ts</text>
</g>
<!-- packages_core_src_text&#45;buffer_ts&#45;&gt;packages_core_src_types_ts -->
<g id="edge4" class="edge">
<title>packages_core_src_text&#45;buffer_ts&#45;&gt;packages_core_src_types_ts</title>
<path fill="none" stroke="gray" d="M400.09,-161.83C417.47,-150.78 440.6,-136.75 462,-126 468.54,-122.71 475.58,-119.51 482.54,-116.51"/>
<polygon fill="gray" stroke="gray" points="484.06,-119.67 491.93,-112.58 481.35,-113.22 484.06,-119.67"/>
</g>
<!-- packages_core_src_lib_styled&#45;text_ts&#45;&gt;packages_core_src_text&#45;buffer_ts -->
<g id="edge6" class="edge">
<title>packages_core_src_lib_styled&#45;text_ts&#45;&gt;packages_core_src_text&#45;buffer_ts</title>
<path fill="none" stroke="gray" d="M461.69,-242.85C439.33,-231.59 415.13,-216.79 397.58,-204.14"/>
<polygon fill="gray" stroke="gray" points="399.65,-201.32 389.54,-198.13 395.46,-206.92 399.65,-201.32"/>
</g>
<!-- packages_core_src_zig_ts&#45;&gt;packages_core_src_text&#45;buffer_ts -->
<g id="edge12" class="edge">
<title>packages_core_src_zig_ts&#45;&gt;packages_core_src_text&#45;buffer_ts</title>
<path fill="none" stroke="gray" d="M500.62,-163.04C482.75,-167.37 458.66,-172.01 436.2,-175.59"/>
<polygon fill="gray" stroke="gray" points="435.37,-172.18 426.01,-177.16 436.43,-179.1 435.37,-172.18"/>
</g>
<!-- packages_core_src_buffer_ts -->
<g id="node6" class="node">
<title>packages_core_src_buffer_ts</title>
<polygon fill="#add8e6" stroke="black" points="178.5,-360 102.5,-360 102.5,-324 178.5,-324 178.5,-360"/>
<text text-anchor="middle" x="140.5" y="-338.3" font-family="Times,serif" font-size="14.00">buffer.ts</text>
</g>
<!-- packages_core_src_buffer_ts&#45;&gt;packages_core_src_text&#45;buffer_ts -->
<g id="edge5" class="edge">
<title>packages_core_src_buffer_ts&#45;&gt;packages_core_src_text&#45;buffer_ts</title>
<path fill="none" stroke="gray" d="M178.52,-342.47C208.47,-341.16 250.53,-335.33 281,-315 320.26,-288.81 346.51,-238.93 359.94,-207.69"/>
<polygon fill="gray" stroke="gray" points="363.25,-208.83 363.84,-198.25 356.78,-206.15 363.25,-208.83"/>
</g>
<!-- packages_core_src_renderables_Text_ts -->
<g id="node7" class="node">
<title>packages_core_src_renderables_Text_ts</title>
<polygon fill="#add8e6" stroke="black" points="218,-306 63,-306 63,-270 218,-270 218,-306"/>
<text text-anchor="middle" x="140.5" y="-284.3" font-family="Times,serif" font-size="14.00">renderables/Text.ts</text>
</g>
<!-- packages_core_src_renderables_Text_ts&#45;&gt;packages_core_src_text&#45;buffer_ts -->
<g id="edge7" class="edge">
<title>packages_core_src_renderables_Text_ts&#45;&gt;packages_core_src_text&#45;buffer_ts</title>
<path fill="none" stroke="gray" d="M218.15,-280.85C239.29,-276.85 261.69,-270.65 281,-261 307.5,-247.76 332.02,-224.45 348.67,-206.22"/>
<polygon fill="gray" stroke="gray" points="351.72,-208.06 355.75,-198.26 346.49,-203.41 351.72,-208.06"/>
</g>
<!-- packages_core_src_index_ts -->
<g id="node8" class="node">
<title>packages_core_src_index_ts</title>
<polygon fill="#add8e6" stroke="black" points="177.5,-252 103.5,-252 103.5,-216 177.5,-216 177.5,-252"/>
<text text-anchor="middle" x="140.5" y="-230.3" font-family="Times,serif" font-size="14.00">index.ts</text>
</g>
<!-- packages_core_src_index_ts&#45;&gt;packages_core_src_text&#45;buffer_ts -->
<g id="edge8" class="edge">
<title>packages_core_src_index_ts&#45;&gt;packages_core_src_text&#45;buffer_ts</title>
<path fill="none" stroke="gray" d="M177.56,-228.06C205.86,-223.15 246.15,-215.6 281,-207 289.47,-204.91 298.33,-202.5 307.05,-200.01"/>
<polygon fill="gray" stroke="gray" points="308.17,-203.33 316.79,-197.17 306.21,-196.61 308.17,-203.33"/>
</g>
<!-- packages_core_src_lib_hast&#45;styled&#45;text_ts -->
<g id="node9" class="node">
<title>packages_core_src_lib_hast&#45;styled&#45;text_ts</title>
<polygon fill="#add8e6" stroke="black" points="225,-198 56,-198 56,-162 225,-162 225,-198"/>
<text text-anchor="middle" x="140.5" y="-176.3" font-family="Times,serif" font-size="14.00">lib/hast&#45;styled&#45;text.ts</text>
</g>
<!-- packages_core_src_lib_hast&#45;styled&#45;text_ts&#45;&gt;packages_core_src_text&#45;buffer_ts -->
<g id="edge9" class="edge">
<title>packages_core_src_lib_hast&#45;styled&#45;text_ts&#45;&gt;packages_core_src_text&#45;buffer_ts</title>
<path fill="none" stroke="gray" d="M225.15,-180C252.1,-180 281.51,-180 306.79,-180"/>
<polygon fill="gray" stroke="gray" points="306.98,-183.5 316.98,-180 306.98,-176.5 306.98,-183.5"/>
</g>
<!-- packages_core_src_lib_tree&#45;sitter&#45;styled&#45;text_ts -->
<g id="node10" class="node">
<title>packages_core_src_lib_tree&#45;sitter&#45;styled&#45;text_ts</title>
<polygon fill="#add8e6" stroke="black" points="246,-144 35,-144 35,-108 246,-108 246,-144"/>
<text text-anchor="middle" x="140.5" y="-122.3" font-family="Times,serif" font-size="14.00">lib/tree&#45;sitter&#45;styled&#45;text.ts</text>
</g>
<!-- packages_core_src_lib_tree&#45;sitter&#45;styled&#45;text_ts&#45;&gt;packages_core_src_text&#45;buffer_ts -->
<g id="edge10" class="edge">
<title>packages_core_src_lib_tree&#45;sitter&#45;styled&#45;text_ts&#45;&gt;packages_core_src_text&#45;buffer_ts</title>
<path fill="none" stroke="gray" d="M241.22,-144.02C254.64,-146.82 268.19,-149.84 281,-153 289.47,-155.09 298.33,-157.5 307.05,-159.99"/>
<polygon fill="gray" stroke="gray" points="306.21,-163.39 316.79,-162.83 308.17,-156.67 306.21,-163.39"/>
</g>
<!-- packages_core_src_renderables_TextBufferRenderable_ts -->
<g id="node11" class="node">
<title>packages_core_src_renderables_TextBufferRenderable_ts</title>
<polygon fill="#add8e6" stroke="black" points="281,-90 0,-90 0,-54 281,-54 281,-90"/>
<text text-anchor="middle" x="140.5" y="-68.3" font-family="Times,serif" font-size="14.00">renderables/TextBufferRenderable.ts</text>
</g>
<!-- packages_core_src_renderables_TextBufferRenderable_ts&#45;&gt;packages_core_src_text&#45;buffer_ts -->
<g id="edge11" class="edge">
<title>packages_core_src_renderables_TextBufferRenderable_ts&#45;&gt;packages_core_src_text&#45;buffer_ts</title>
<path fill="none" stroke="gray" d="M259.86,-90.11C267.16,-92.69 274.27,-95.64 281,-99 307.5,-112.24 332.02,-135.55 348.67,-153.78"/>
<polygon fill="gray" stroke="gray" points="346.49,-156.59 355.75,-161.74 351.72,-151.94 346.49,-156.59"/>
</g>
<!-- packages_core_src_renderables_TextNode_ts -->
<g id="node12" class="node">
<title>packages_core_src_renderables_TextNode_ts</title>
<polygon fill="#add8e6" stroke="black" points="237,-36 44,-36 44,0 237,0 237,-36"/>
<text text-anchor="middle" x="140.5" y="-14.3" font-family="Times,serif" font-size="14.00">renderables/TextNode.ts</text>
</g>
<!-- packages_core_src_renderables_TextNode_ts&#45;&gt;packages_core_src_text&#45;buffer_ts -->
<g id="edge13" class="edge">
<title>packages_core_src_renderables_TextNode_ts&#45;&gt;packages_core_src_text&#45;buffer_ts</title>
<path fill="none" stroke="gray" d="M237.04,-26C252.58,-30.17 267.87,-36.24 281,-45 320.26,-71.19 346.51,-121.07 359.94,-152.31"/>
<polygon fill="gray" stroke="gray" points="356.78,-153.85 363.84,-161.75 363.25,-151.17 356.78,-153.85"/>
</g>
</g>
</svg>
